<?xml version="1.0" standalone="no"?>
<!DOCTYPE svg PUBLIC "-//W3C//DTD SVG 20010904//EN"
 "http://www.w3.org/TR/2001/REC-SVG-20010904/DTD/svg10.dtd">
<svg version="1.0" xmlns="http://www.w3.org/2000/svg"
 width="512.000000pt" height="512.000000pt" viewBox="0 0 512.000000 512.000000"
 preserveAspectRatio="xMidYMid meet">
<metadata>
Created by potrace 1.11, written by Peter Selinger 2001-2013
</metadata>
<g transform="translate(0.000000,512.000000) scale(0.100000,-0.100000)"
fill="#000000" stroke="none">
<path d="M744 4876 c-16 -7 -42 -25 -57 -38 -59 -55 -57 -18 -57 -971 l0 -875
-235 -1 c-223 -1 -238 -2 -282 -23 -67 -32 -107 -94 -109 -168 -3 -104 33
-315 83 -485 170 -584 581 -1074 1146 -1365 134 -69 315 -145 419 -175 32 -9
60 -19 62 -23 2 -4 -13 -85 -33 -180 -21 -95 -36 -190 -34 -210 4 -41 25 -76
67 -106 27 -21 35 -21 846 -21 811 0 819 0 846 21 46 34 66 68 67 115 1 35
-47 293 -69 370 -3 12 10 20 56 32 103 29 309 115 440 184 317 166 571 382
798 678 36 47 129 198 170 275 142 266 245 635 247 877 0 63 -3 76 -30 114
-17 25 -50 53 -76 66 l-46 24 -1336 0 -1337 1 0 440 0 440 373 -6 c404 -6 954
-16 1192 -20 83 -2 162 1 177 6 42 15 88 75 89 117 3 164 -9 208 -71 244 -28
17 -53 18 -363 13 -182 -4 -458 -9 -612 -11 -154 -3 -394 -7 -532 -10 l-253
-5 0 146 0 146 373 -6 c390 -7 803 -14 1147 -20 193 -4 207 -3 242 17 52 29
68 69 69 171 1 101 -16 145 -69 176 -38 23 -5 23 -897 5 -655 -13 -915 -15
-915 -6 0 5 -17 20 -37 33 l-38 23 -695 2 c-560 2 -701 0 -726 -11z"/>
</g>
</svg>
